<svg width="17" height="16" viewBox="0 0 17 16" fill="none" xmlns="http://www.w3.org/2000/svg">
<g clip-path="url(#clip0_1_126)">
<path fill-rule="evenodd" clip-rule="evenodd" d="M8.05 1.5C4.46 1.5 1.55 4.41 1.55 8C1.55 11.59 4.46 14.5 8.05 14.5C11.64 14.5 14.55 11.59 14.55 8C14.55 4.41 11.64 1.5 8.05 1.5ZM8.40334 5.14667C8.30959 5.05303 8.1825 5.00044 8.05 5.00044C7.9175 5.00044 7.79042 5.05303 7.69667 5.14667L5.69667 7.14667C5.64755 7.19244 5.60814 7.24764 5.58082 7.30897C5.55349 7.37031 5.53879 7.43652 5.53761 7.50365C5.53642 7.57079 5.54877 7.63747 5.57392 7.69973C5.59907 7.76199 5.6365 7.81855 5.68398 7.86603C5.73146 7.9135 5.78801 7.95093 5.85027 7.97608C5.91253 8.00123 5.97922 8.01358 6.04635 8.01239C6.11349 8.01121 6.1797 7.99652 6.24103 7.96919C6.30236 7.94186 6.35756 7.90246 6.40334 7.85333L7.55 6.70667V10.5C7.55 10.6326 7.60268 10.7598 7.69645 10.8536C7.79022 10.9473 7.9174 11 8.05 11C8.18261 11 8.30979 10.9473 8.40356 10.8536C8.49732 10.7598 8.55 10.6326 8.55 10.5V6.70667L9.69667 7.85333C9.74244 7.90246 9.79764 7.94186 9.85898 7.96919C9.92031 7.99652 9.98652 8.01121 10.0537 8.01239C10.1208 8.01358 10.1875 8.00123 10.2497 7.97608C10.312 7.95093 10.3685 7.9135 10.416 7.86603C10.4635 7.81855 10.5009 7.76199 10.5261 7.69973C10.5512 7.63747 10.5636 7.57079 10.5624 7.50365C10.5612 7.43652 10.5465 7.37031 10.5192 7.30897C10.4919 7.24764 10.4525 7.19244 10.4033 7.14667L8.40334 5.14667Z" fill="#9CA3AF"/>
</g>
<defs>
<clipPath id="clip0_1_126">
<rect width="16" height="16" fill="white" transform="translate(0.0500031)"/>
</clipPath>
</defs>
</svg>
