<svg width="20" height="20" viewBox="0 0 20 20" fill="none" xmlns="http://www.w3.org/2000/svg">
<g clip-path="url(#clip0_1_29)">
<path d="M6.25 2.8125C6.25 1.94917 6.95 1.25 7.8125 1.25H8.125C8.9538 1.25 9.74866 1.57924 10.3347 2.16529C10.9208 2.75134 11.25 3.5462 11.25 4.375V5.9375C11.25 6.80083 11.95 7.5 12.8125 7.5H14.375C15.2038 7.5 15.9987 7.82924 16.5847 8.41529C17.1708 9.00134 17.5 9.7962 17.5 10.625V13.4375C17.5 14.3 16.8 15 15.9375 15H7.8125C7.3981 15 7.00067 14.8354 6.70765 14.5424C6.41462 14.2493 6.25 13.8519 6.25 13.4375V2.8125Z" fill="#D4D4D4"/>
<path d="M12.5 4.375C12.5015 3.32379 12.1229 2.30747 11.4342 1.51334C12.8286 1.87997 14.1006 2.6104 15.1201 3.62991C16.1396 4.64942 16.87 5.92143 17.2367 7.31584C16.4425 6.62707 15.4262 6.24854 14.375 6.25H12.8125C12.7296 6.25 12.6501 6.21708 12.5915 6.15847C12.5329 6.09987 12.5 6.02038 12.5 5.9375V4.375ZM4.0625 5H5V13.4375C5 14.1834 5.29632 14.8988 5.82376 15.4262C6.35121 15.9537 7.06658 16.25 7.8125 16.25H13.75V17.1875C13.75 18.05 13.05 18.75 12.1875 18.75H4.0625C3.6481 18.75 3.25067 18.5854 2.95765 18.2924C2.66462 17.9993 2.5 17.6019 2.5 17.1875V6.5625C2.5 5.69917 3.2 5 4.0625 5Z" fill="#D4D4D4"/>
</g>
<defs>
<clipPath id="clip0_1_29">
<rect width="20" height="20" fill="white"/>
</clipPath>
</defs>
</svg>
