<svg width="20" height="20" viewBox="0 0 20 20" fill="none" xmlns="http://www.w3.org/2000/svg">
<path d="M9.55834 3.2C9.67553 3.08296 9.83438 3.01722 10 3.01722C10.1656 3.01722 10.3245 3.08296 10.4417 3.2L17.6833 10.4417C17.7406 10.5031 17.8096 10.5523 17.8862 10.5865C17.9629 10.6206 18.0457 10.639 18.1296 10.6405C18.2135 10.642 18.2968 10.6265 18.3747 10.5951C18.4525 10.5637 18.5232 10.5169 18.5825 10.4575C18.6419 10.3982 18.6887 10.3275 18.7201 10.2497C18.7515 10.1718 18.767 10.0885 18.7655 10.0046C18.764 9.92065 18.7456 9.83789 18.7115 9.76122C18.6773 9.68455 18.6281 9.61555 18.5667 9.55834L11.3258 2.31667C11.1517 2.14256 10.945 2.00444 10.7175 1.91021C10.4901 1.81599 10.2462 1.76749 10 1.76749C9.75378 1.76749 9.50996 1.81599 9.28247 1.91021C9.05498 2.00444 8.84828 2.14256 8.67417 2.31667L1.43251 9.55834C1.31871 9.67627 1.25579 9.83417 1.25729 9.99804C1.25879 10.1619 1.32459 10.3186 1.44053 10.4345C1.55647 10.5503 1.71325 10.616 1.87713 10.6173C2.041 10.6186 2.19885 10.5556 2.31667 10.4417L9.55834 3.2Z" fill="#D4D4D4"/>
<path d="M10 4.52666L16.7992 11.3258C16.8242 11.3508 16.8492 11.3742 16.875 11.3975V16.5625C16.875 17.425 16.175 18.125 15.3125 18.125H12.5C12.3342 18.125 12.1753 18.0591 12.0581 17.9419C11.9408 17.8247 11.875 17.6658 11.875 17.5V13.75C11.875 13.5842 11.8092 13.4253 11.6919 13.3081C11.5747 13.1908 11.4158 13.125 11.25 13.125H8.75C8.58424 13.125 8.42527 13.1908 8.30806 13.3081C8.19085 13.4253 8.125 13.5842 8.125 13.75V17.5C8.125 17.6658 8.05915 17.8247 7.94194 17.9419C7.82473 18.0591 7.66576 18.125 7.5 18.125H4.6875C4.2731 18.125 3.87567 17.9604 3.58265 17.6673C3.28962 17.3743 3.125 16.9769 3.125 16.5625V11.3975C3.15093 11.3743 3.17621 11.3504 3.20083 11.3258L10 4.52499V4.52666Z" fill="#D4D4D4"/>
</svg>
