<svg width="17" height="16" viewBox="0 0 17 16" fill="none" xmlns="http://www.w3.org/2000/svg">
<g clip-path="url(#clip0_1_145)">
<path fill-rule="evenodd" clip-rule="evenodd" d="M8.45999 1.5C4.86999 1.5 1.95999 4.41 1.95999 8C1.95999 11.59 4.86999 14.5 8.45999 14.5C12.05 14.5 14.96 11.59 14.96 8C14.96 4.41 12.05 1.5 8.45999 1.5ZM8.81332 5.14667C8.71957 5.05303 8.59249 5.00044 8.45999 5.00044C8.32749 5.00044 8.20041 5.05303 8.10666 5.14667L6.10666 7.14667C6.05753 7.19244 6.01813 7.24764 5.9908 7.30897C5.96348 7.37031 5.94878 7.43652 5.9476 7.50365C5.94641 7.57079 5.95876 7.63747 5.98391 7.69973C6.00906 7.76199 6.04649 7.81855 6.09397 7.86603C6.14145 7.9135 6.198 7.95093 6.26026 7.97608C6.32252 8.00123 6.3892 8.01358 6.45634 8.01239C6.52347 8.01121 6.58968 7.99652 6.65102 7.96919C6.71235 7.94186 6.76755 7.90246 6.81332 7.85333L7.95999 6.70667V10.5C7.95999 10.6326 8.01267 10.7598 8.10644 10.8536C8.20021 10.9473 8.32738 11 8.45999 11C8.5926 11 8.71978 10.9473 8.81354 10.8536C8.90731 10.7598 8.95999 10.6326 8.95999 10.5V6.70667L10.1067 7.85333C10.1524 7.90246 10.2076 7.94186 10.269 7.96919C10.3303 7.99652 10.3965 8.01121 10.4636 8.01239C10.5308 8.01358 10.5975 8.00123 10.6597 7.97608C10.722 7.95093 10.7785 7.9135 10.826 7.86603C10.8735 7.81855 10.9109 7.76199 10.9361 7.69973C10.9612 7.63747 10.9736 7.57079 10.9724 7.50365C10.9712 7.43652 10.9565 7.37031 10.9292 7.30897C10.9019 7.24764 10.8624 7.19244 10.8133 7.14667L8.81332 5.14667Z" fill="white"/>
</g>
<defs>
<clipPath id="clip0_1_145">
<rect width="16" height="16" fill="white" transform="translate(0.459991)"/>
</clipPath>
</defs>
</svg>
